<svg xmlns="http://www.w3.org/2000/svg" viewBox="0 0 1024 1024">
  <defs>
    <linearGradient id="bg" x1="160" y1="100" x2="860" y2="930" gradientUnits="userSpaceOnUse">
      <stop offset="0" stop-color="#111827"/>
      <stop offset="0.55" stop-color="#142033"/>
      <stop offset="1" stop-color="#07111F"/>
    </linearGradient>
    <linearGradient id="ring" x1="205" y1="160" x2="815" y2="855" gradientUnits="userSpaceOnUse">
      <stop offset="0" stop-color="#E6F7FF"/>
      <stop offset="0.42" stop-color="#67E8F9"/>
      <stop offset="0.72" stop-color="#34D399"/>
      <stop offset="1" stop-color="#0EA5E9"/>
    </linearGradient>
    <linearGradient id="waterA" x1="260" y1="380" x2="760" y2="750" gradientUnits="userSpaceOnUse">
      <stop offset="0" stop-color="#22D3EE"/>
      <stop offset="1" stop-color="#2563EB"/>
    </linearGradient>
    <linearGradient id="waterB" x1="250" y1="460" x2="750" y2="765" gradientUnits="userSpaceOnUse">
      <stop offset="0" stop-color="#A7F3D0"/>
      <stop offset="1" stop-color="#10B981"/>
    </linearGradient>
    <filter id="softShadow" x="-20%" y="-20%" width="140%" height="140%">
      <feDropShadow dx="0" dy="32" stdDeviation="36" flood-color="#000000" flood-opacity="0.38"/>
    </filter>
  </defs>

  <rect width="1024" height="1024" rx="224" fill="url(#bg)"/>

  <g filter="url(#softShadow)">
    <circle cx="512" cy="512" r="330" fill="none" stroke="url(#ring)" stroke-width="72"/>
    <circle cx="512" cy="512" r="247" fill="#0B1220" opacity="0.92"/>

    <clipPath id="bowl">
      <circle cx="512" cy="512" r="238"/>
    </clipPath>

    <g clip-path="url(#bowl)">
      <rect x="240" y="558" width="545" height="212" fill="#0F172A"/>
      <path d="M218 558 C305 490 402 628 506 557 C621 478 700 596 807 532 L807 770 L218 770 Z" fill="url(#waterA)"/>
      <path d="M205 654 C309 584 390 716 505 644 C622 571 704 690 820 620 L820 785 L205 785 Z" fill="url(#waterB)" opacity="0.92"/>
      <path d="M270 503 C360 440 445 558 540 498 C631 442 710 520 774 483" fill="none" stroke="#DFFBFF" stroke-width="22" stroke-linecap="round" opacity="0.74"/>
    </g>

    <path d="M688 255 A330 330 0 0 1 804 394" fill="none" stroke="#F8FAFC" stroke-width="28" stroke-linecap="round" opacity="0.8"/>
    <circle cx="676" cy="255" r="18" fill="#F8FAFC" opacity="0.85"/>
  </g>
</svg>
